# xmcd
#
# Track frame offsets:
#	150
#	9397
#	19325
#	30682
#	40339
#	49777
#	61110
#	71825
#	82792
#	92582
#	102352
#	112437
#	122835
#	133815
#	142522
#	153422
#	163350
#	174215
#	185155
#	194620
#	203959
#	215547
#	227107
#	236460
#	247459
#	257217
#	267125
#	277392
#
# Disc length: 3845 seconds
#
# Revision: 1
# Processed by: cddbd v1.5.2PL0 Copyright (c) Steve Scherf et al.
# Submitted via: audiograbber 1.83.01
#
DISCID=a80f031c
DTITLE=Various Artist - The 'D' Singles Volume 2 - Disc 4
DYEAR=1900
DGENRE=
TTITLE0=Dave Edge - Wham Bam
TTITLE1=Dave Edge - Night Of Loneliness
TTITLE2=Glenn Barber - New Girl In School
TTITLE3=Glenn Barber - Go Home Letter (I Wish I Were You)
TTITLE4=Shirley Rucker - You Take More Than I Can
TTITLE5=Shirley Rucker - I Hear Your Footsteps
TTITLE6=Durwood Daily - What Difference Does It Make
TTITLE7=Durwood Daily - East Dallas Dagger
TTITLE8=Ernie Kucera - When When Polka
TTITLE9=Ernie Kucera - Ernie's Polka
TTITLE10=Red Fowler - That's All I Need
TTITLE11=Red Fowler - You'll Have To Pay
TTITLE12=Tony Douglas - Old Man Love
TTITLE13=Tony Douglas - Too Much To Lose
TTITLE14=Johnny Conoly - Your Wedding Day
TTITLE15=Johnny Conoly - I'm Gonna Hang Around You Baby
TTITLE16=William Tell Taylor - Angel Of Love
TTITLE17=William Tell Taylor - Love Is Everywhere
TTITLE18=Merl Lindsay - Stolen Kisses
TTITLE19=Merl Lindsay - Is It Too Late
TTITLE20=Vern Pullen and B. J. Johnson - Country Boys Dream
TTITLE21=Vern Pullen and B. J. Johnson - What Am I To Do
TTITLE22=Leon Payne - Brothers Of A Bottle
TTITLE23=Leon Payne - Mitzie Mcgraw
TTITLE24=Patsy Timmons - Branded For Life
TTITLE25=Patsy Timmons - My Philosophy
TTITLE26=Cecil Bowman - Sweet Cake And Kisses
TTITLE27=Cecil Bowman - Tea Leaves Don't Lie
EXTD=
EXTT0=
EXTT1=
EXTT2=
EXTT3=
EXTT4=
EXTT5=
EXTT6=
EXTT7=
EXTT8=
EXTT9=
EXTT10=
EXTT11=
EXTT12=
EXTT13=
EXTT14=
EXTT15=
EXTT16=
EXTT17=
EXTT18=
EXTT19=
EXTT20=
EXTT21=
EXTT22=
EXTT23=
EXTT24=
EXTT25=
EXTT26=
EXTT27=
PLAYORDER=
